# xmcd
#
# Track frame offsets: 
#        182
#        19032
#        38397
#        61707
#        83245
#        100285
#        122075
#        141510
#        161057
#        179377
#        196230
#
# Disc length: 2806 seconds
#
# Revision: 3
# Processed by: cddbd v1.5.1PL0 Copyright (c) Steve Scherf et al.
# Submitted via: ExactAudioCopy v0.95a4
#
DISCID=8b0af40b
DTITLE=Roger - Unlimited!
DYEAR=1987
DGENRE=R&B
TTITLE0=I Want To Be Your Man
TTITLE1=Night And Day
TTITLE2=Been This Way Before (Rap)
TTITLE3=Composition To Commemorate (May 30, 1918)
TTITLE4=Papa's Got A Brand New Bag
TTITLE5=Thrill Seekers
TTITLE6=Tender Moments
TTITLE7=If You're Serious
TTITLE8=Private Lover
TTITLE9=I Really Want To Be Your Man
TTITLE10=Bedistgutarist-A-Rown
EXTD=
EXTT0=
EXTT1=
EXTT2=
EXTT3=
EXTT4=
EXTT5=
EXTT6=
EXTT7=
EXTT8=
EXTT9=
EXTT10=
PLAYORDER=
